<svg xmlns="http://www.w3.org/2000/svg" viewBox="0 0 300 300" width="100%" height="100%">
  <defs>
    <polygon id="tooth" points="140,135 160,135 167,165 133,165" />
  </defs>

  <circle cx="105" cy="120" r="18" fill="#47a4d6" />
  <path d="M 105 135 L 75 165 L 70 190 L 150 190 Z" fill="#47a4d6" />
  
  <circle cx="195" cy="120" r="18" fill="#47a4d6" />
  <path d="M 195 135 L 225 165 L 230 190 L 150 190 Z" fill="#47a4d6" />

  <circle cx="150" cy="95" r="22" fill="#7ad1f7" />
  <path d="M 150 112 L 122 140 L 115 190 L 185 190 L 178 140 Z" fill="#7ad1f7" />

  <g fill="#3d7cba" stroke="#3d7cba" stroke-width="2" stroke-linejoin="round">
    <circle cx="150" cy="210" r="50" />
    <use href="#tooth" />
    <use href="#tooth" transform="rotate(45 150 210)" />
    <use href="#tooth" transform="rotate(90 150 210)" />
    <use href="#tooth" transform="rotate(135 150 210)" />
    <use href="#tooth" transform="rotate(180 150 210)" />
    <use href="#tooth" transform="rotate(225 150 210)" />
    <use href="#tooth" transform="rotate(270 150 210)" />
    <use href="#tooth" transform="rotate(315 150 210)" />
  </g>

  <circle cx="150" cy="210" r="34" fill="#ffffff" />
  <circle cx="150" cy="210" r="22" fill="#3d7cba" />
  <circle cx="150" cy="210" r="11" fill="#ffffff" />
</svg>